<svg id="Layer_1" data-name="Layer 1" xmlns="http://www.w3.org/2000/svg" viewBox="0 0 52 52">
  <defs>
    <style>
      .cls-1 {
        fill: none;
        stroke: #2b1b35;
        stroke-linecap: round;
        stroke-linejoin: round;
        stroke-width: 2px;
      }
    </style>
  </defs>
  <title>Product_cards_pollutants_icons</title>
  <g>
    <g>
      <path class="cls-1" d="M10.44,40a3.59,3.59,0,0,1,5.08-5.08L20.6,40a3.59,3.59,0,1,1-5.08,5.08Z"/>
      <line class="cls-1" x1="10.44" y1="34.95" x2="7.47" y2="31.97"/>
      <line class="cls-1" x1="23.57" y1="48.08" x2="20.6" y2="45.1"/>
      <g>
        <line class="cls-1" x1="17.32" y1="30.8" x2="15.33" y2="34.76"/>
        <line class="cls-1" x1="21.03" y1="34.51" x2="18.06" y2="37.49"/>
        <line class="cls-1" x1="24.75" y1="38.23" x2="20.78" y2="40.21"/>
      </g>
      <g>
        <line class="cls-1" x1="10.26" y1="39.84" x2="6.29" y2="41.82"/>
        <line class="cls-1" x1="12.98" y1="42.56" x2="10.01" y2="45.54"/>
        <line class="cls-1" x1="15.71" y1="45.29" x2="13.72" y2="49.25"/>
      </g>
      <line class="cls-1" x1="9.22" y1="37.24" x2="5.04" y2="36.75"/>
      <line class="cls-1" x1="12.25" y1="29.55" x2="12.74" y2="33.72"/>
      <line class="cls-1" x1="18.31" y1="46.32" x2="18.79" y2="50.5"/>
      <line class="cls-1" x1="26" y1="43.3" x2="21.82" y2="42.81"/>
    </g>
    <g>
      <path class="cls-1" d="M18.71,7.73a3.59,3.59,0,0,1,6.6,2.83l-2.83,6.6a3.59,3.59,0,1,1-6.6-2.83Z"/>
      <line class="cls-1" x1="23.42" y1="5.84" x2="25.08" y2="1.97"/>
      <line class="cls-1" x1="16.12" y1="22.91" x2="17.77" y2="19.04"/>
      <g>
        <line class="cls-1" x1="29.83" y1="10.68" x2="25.42" y2="10.31"/>
        <line class="cls-1" x1="27.76" y1="15.51" x2="23.9" y2="13.85"/>
        <line class="cls-1" x1="25.7" y1="20.34" x2="22.38" y2="17.4"/>
      </g>
      <g>
        <line class="cls-1" x1="18.81" y1="7.49" x2="15.5" y2="4.54"/>
        <line class="cls-1" x1="17.3" y1="11.03" x2="13.43" y2="9.37"/>
        <line class="cls-1" x1="15.78" y1="14.57" x2="11.37" y2="14.21"/>
      </g>
      <line class="cls-1" x1="20.84" y1="5.56" x2="19.74" y2="1.5"/>
      <line class="cls-1" x1="29.11" y1="5.51" x2="25.41" y2="7.51"/>
      <line class="cls-1" x1="15.79" y1="17.37" x2="12.09" y2="19.37"/>
      <line class="cls-1" x1="21.46" y1="23.38" x2="20.36" y2="19.32"/>
    </g>
    <g>
      <polygon class="cls-1" points="36.17 14.54 39.92 16.7 39.92 22.77 36.17 24.93 32.43 22.77 32.43 16.7 36.17 14.54"/>
      <polyline class="cls-1" points="36.33 33.12 30.72 26.97 25.7 31.99"/>
      <polyline class="cls-1" points="32.02 37.22 30.92 31.57 36.33 33.12"/>
      <polyline class="cls-1" points="36.33 33.12 41.93 26.97 46.95 31.99"/>
      <polyline class="cls-1" points="40.63 37.22 41.73 31.57 36.33 33.12"/>
      <line class="cls-1" x1="36.33" y1="24.93" x2="36.33" y2="33.12"/>
    </g>
  </g>
</svg>