<svg id="Layer_1" data-name="Layer 1" xmlns="http://www.w3.org/2000/svg" viewBox="0 0 52 52">
  <defs>
    <style>
      .cls-1 {
        fill: none;
        stroke: #2b1b35;
        stroke-linecap: round;
        stroke-linejoin: round;
        stroke-width: 2px;
      }
    </style>
  </defs>
  <title>Product_cards_pollutants_icons</title>
  <g>
    <path class="cls-1" d="M32.31,46a4.52,4.52,0,1,0,9,0c0-3.38-4.52-9.36-4.52-9.36S32.31,42.49,32.31,46Z"/>
    <path class="cls-1" d="M8.4,26.75H8.48c2.72,0,4.53-.68,4.53-2.91V12.46c0-2-1.69-2.91-4.53-2.91H8.4v17.2Z"/>
    <path class="cls-1" d="M32.29,27.66a2.24,2.24,0,0,0-2.24,2.24h0a2.24,2.24,0,0,0,2.24,2.24h9.07A2.24,2.24,0,0,0,43.6,29.9h0a2.24,2.24,0,0,0-2.24-2.24"/>
    <path class="cls-1" d="M40.69,27.66V20.1a5.47,5.47,0,0,0-5.47-5.47H13"/>
    <path class="cls-1" d="M33,27.66V25.08a2.74,2.74,0,0,0-2.74-2.74H13"/>
    <path class="cls-1" d="M26.77,4a1.72,1.72,0,1,0-3.45,0"/>
    <line class="cls-1" x1="26.77" y1="4" x2="26.77" y2="9.96"/>
    <line class="cls-1" x1="23.32" y1="4" x2="23.32" y2="9.96"/>
    <path class="cls-1" d="M36.86,3.76h0c0-1.38-.94-2.44-2-2.23l-8,1.55V5l7.61,1.46C35.72,6.71,36.86,5.43,36.86,3.76Z"/>
    <path class="cls-1" d="M13.29,4.24h0c0,1.38.94,2.44,2,2.23l8-1.55V3L15.71,1.53C14.44,1.29,13.29,2.57,13.29,4.24Z"/>
    <path class="cls-1" d="M32.16,14.63V13.79A3.83,3.83,0,0,0,28.33,10H21.76a3.83,3.83,0,0,0-3.83,3.83v0.83"/>
  </g>
</svg>